<svg width="957" height="314" viewBox="0 0 957 314" fill="none" xmlns="http://www.w3.org/2000/svg">
<g clip-path="url(#clip0_81_117)">
<path d="M300.273 60.1797C299.433 53.914 293.537 50.895 288.04 49.0153C245.616 33.3224 203.434 17.6438 161.052 2.02209C151.212 -2.23578 141.471 0.939818 131.801 4.92712C91.7268 19.7941 51.809 34.5044 11.6634 49.4283C5.91005 51.3365 0.697815 55.1956 0.356029 61.5468C-0.356024 84.7444 0.299065 108.056 0.0854488 131.239C0.0854488 151.888 0.113931 172.493 0.0854488 193.128C-0.213614 200.632 1.62348 207.952 7.94652 212.609C51.2251 244.891 94.9595 276.505 138.366 308.603C145.387 314.37 152.508 316.392 160.141 310.241C203.818 278.171 247.481 246.145 291.159 214.075C298.464 209.191 301.313 200.974 300.757 192.416C300.358 148.47 301.355 104.425 300.344 60.5357L300.287 60.1797H300.273ZM287.485 201.245C286.117 204.178 284.309 206.172 283.07 207.325C218.843 253.208 173.627 285.662 166.478 291.315C165.196 292.34 160.739 295.972 158.29 294.59C156.737 293.707 156.638 291.173 156.609 289.948C156.438 283.625 156.239 270.98 156.225 254.49C156.324 251.029 153.604 248.224 150.528 248.124C147.181 248.01 144.134 251.115 144.461 254.874C144.49 260.171 144.547 273.244 144.319 286.958C144.276 289.151 144.177 293.109 141.955 294.206C139.363 295.488 135.333 292.141 134.023 291.116C95.1588 260.798 51.7378 233.798 14.6256 201.202C12.5606 197.784 12.2188 193.398 12.2331 189.34C12.2616 152.101 12.0764 114.777 12.29 77.5672C12.4894 74.1923 13.23 71.4154 15.0955 70.5325C17.3029 69.4787 20.2508 71.4439 21.1907 72.0562C27.0296 75.8299 42.1821 83.2918 64.2842 93.6019C64.9535 93.8297 66.4488 94.2569 68.1008 93.73C70.9063 92.8329 73.0852 89.5576 72.3019 86.7523C71.8889 85.2428 70.7354 84.3171 70.0946 83.8899C52.8486 74.8188 39.2911 67.5705 31.0883 63.1844C29.536 62.3585 25.8475 60.493 26.3887 58.4709C26.8729 56.6908 30.4901 54.8538 32.7687 54.0991C68.4568 40.8413 104.216 27.5123 139.919 14.283C146.811 11.2641 154.202 11.3068 161.081 14.3542C196.37 27.4554 231.873 40.6562 267.049 53.7288C269.299 54.569 275.138 57.0469 274.924 59.5816C274.81 60.906 273.073 61.8886 271.392 62.5436C256.524 70.2334 241.643 77.9375 226.775 85.6273C226.405 85.8124 224.112 87.0228 223.499 89.643C222.887 92.249 224.183 95.2395 226.761 96.4072C229.737 97.76 232.571 95.8661 232.713 95.7664C247.809 87.9627 262.919 80.159 278.014 72.341C279.88 71.1875 283.568 69.2366 285.989 70.6749C287.841 71.7714 288.168 74.4343 288.296 75.5593C289.35 85.2855 289.293 181.508 289.279 191.689C289.393 193.541 289.379 197.215 287.513 201.231L287.485 201.245Z" fill="#5E4797"/>
<path d="M77.9841 98.5433C82.7549 90.7681 91.4134 79.3473 105.84 70.974C131.63 55.9931 164.613 57.2605 188.623 71.8711C198.221 77.7097 204.715 84.6732 208.717 89.7C214.043 96.393 221.691 107.8 225.194 123.678C226.86 131.225 227.145 137.761 227.074 142.446C206.951 126.64 190.161 123.008 178.626 122.567C157.763 121.769 146.84 131.154 118.144 137.548C96.5117 142.375 78.098 142.56 66.0074 141.976C65.7938 136.935 66.0359 130.371 67.6878 122.923C70.1088 112 74.5805 103.755 77.9841 98.5433Z" fill="url(#paint0_linear_81_117)"/>
<path d="M66.8334 164.12C67.2748 168.406 68.0723 173.319 69.4822 178.645C71.4048 185.951 73.9539 192.088 76.3749 196.944C79.5222 203.481 87.3975 217.522 103.661 227.518C120.807 238.056 137.398 238.028 146.541 238.013C155.94 237.999 172.004 237.757 188.822 227.661C205.2 217.835 213.331 204.022 216.621 197.557C218.885 193.057 221.278 187.446 223.186 180.796C224.895 174.843 225.849 169.403 226.362 164.775C208.575 150.036 193.422 146.192 183.283 145.237C159.614 143.002 146.626 154.551 113.003 161.229C94.3898 164.932 78.2974 164.889 66.8191 164.092L66.8334 164.12Z" fill="url(#paint1_linear_81_117)"/>
<path d="M355.728 179.073C359.193 174.354 360.926 167.419 360.926 158.267V107.842C360.926 98.6904 359.193 91.7554 355.728 87.0371C353.99 84.7301 354.432 81.5403 357.892 81.5403H391.701C395.175 81.5403 395.603 84.7159 393.865 87.0371C390.4 91.7554 388.667 98.6904 388.667 107.842V127.779C388.667 130.385 390.405 131.097 392.285 129.231C400.089 121 406.155 114.065 409.046 110.021C417.42 98.4578 417.862 91.5228 414.828 87.0513C412.948 84.4453 413.091 81.5545 417.577 81.5545H444.877C447.041 81.5545 447.483 84.1605 446.315 86.4675C445.589 88.4896 439.237 93.4025 430.422 102.645L416.993 117.098C415.839 118.394 415.697 119.704 416.993 121.143C426.962 132.122 435.335 145.408 441.843 159.136C446.173 168.236 450.801 176.324 452.539 179.357C453.977 181.664 453.265 184.555 450.801 184.555H416.267C412.507 184.555 412.08 181.949 413.66 179.357C417.562 173.291 417.99 171.696 414.088 164.049C408.747 153.938 404.261 147.288 399.491 140.353C398.337 138.758 396.742 138.616 395.446 140.068L390.106 145.85C389.095 147.003 388.667 148.014 388.667 149.467V158.282C388.667 167.433 390.4 174.368 393.865 179.087C395.603 181.394 395.161 184.584 391.701 184.584H357.892C354.432 184.584 353.99 181.408 355.728 179.087V179.073Z" fill="#5A63AB"/>
<path d="M564.929 179.073C568.394 174.354 570.127 167.419 570.127 158.267V107.842C570.127 98.6904 568.394 91.7554 564.929 87.0371C563.192 84.7301 563.633 81.5403 567.094 81.5403H606.826C663.748 81.5403 665.2 114.92 665.2 132.108C665.2 167.068 647.57 184.555 612.608 184.555H567.094C563.633 184.555 563.192 181.379 564.929 179.058V179.073ZM607.837 174.017C627.348 174.017 633.414 155.96 633.414 134.144C633.414 112.328 626.337 92.1066 607.268 92.1066C597.584 92.1066 597.883 95.4246 597.883 103.371V161.742C597.883 169.973 598.168 174.017 607.852 174.017H607.837Z" fill="#5A63AB"/>
<path d="M675.169 179.073C678.635 174.354 680.367 167.419 680.367 158.267V107.842C680.367 98.6904 678.635 91.7554 675.169 87.0371C673.432 84.7301 673.873 81.5403 677.334 81.5403H711.142C714.617 81.5403 715.044 84.7159 713.307 87.0371C709.841 91.7554 708.109 98.6904 708.109 107.842V158.267C708.109 167.419 709.841 174.354 713.307 179.073C715.044 181.379 714.603 184.569 711.142 184.569H677.334C673.873 184.569 673.432 181.394 675.169 179.073Z" fill="#5A63AB"/>
<path d="M724.144 173.149C724.144 165.345 730.353 160.147 738.585 160.147C746.816 160.147 752.883 165.345 752.883 173.433C752.883 180.952 746.816 186.008 738.87 186.008C730.339 186.008 724.13 180.81 724.13 173.149H724.144Z" fill="#5A63AB"/>
<path d="M760.117 179.072C763.592 171.995 764.446 172.137 768.491 158.994C776.153 135.298 785.11 112.328 798.682 86.9089C800.562 83.4485 802.584 81.5687 806.344 81.5687H814.433C818.335 81.5687 820.642 83.4485 822.379 86.7665C834.954 111.616 843.613 134.728 850.121 158.851C852.143 167.808 855.618 176.338 857.626 179.372C858.922 181.678 858.352 184.569 855.461 184.569H820.784C817.309 184.569 816.882 181.394 818.62 179.072C823.818 171.995 823.248 171.995 820.357 158.709C820.214 158.125 819.346 157.84 817.608 157.84H785.537C783.8 157.84 782.647 158.709 782.362 160.588C781.351 169.688 782.647 173.02 786.121 178.788C787.859 181.536 787.716 184.569 784.384 184.569H761.556C759.248 184.569 758.949 181.394 760.117 179.072ZM788.001 147.729H813.863C815.885 147.729 816.896 146.434 816.17 144.411C812.553 133.005 808.081 121.727 803.026 109.594C802.014 107.429 800.419 106.703 799.565 108.298C794.509 117.682 789.311 130.541 785.552 144.411C784.968 146.434 785.979 147.729 788.001 147.729Z" fill="#5A63AB"/>
<path d="M863.279 179.073C866.745 174.354 868.478 167.419 868.478 158.267V107.842C868.478 98.6904 866.745 91.7554 863.279 87.0371C861.542 84.7301 861.984 81.5403 865.444 81.5403H905.761C942.317 81.5403 948.954 93.9721 948.954 110.434C948.954 121.413 943.756 129.787 933.488 135.853C931.751 136.864 931.466 138.302 932.619 139.897C937.817 146.975 942.873 155.206 946.775 163.736C948.512 168.207 953.568 176.31 956.017 179.343C957.897 181.65 957.028 184.541 953.568 184.541H920.044C916.584 184.541 916.142 181.935 917.595 179.343C921.07 173.277 920.628 171.112 917.31 163.451C914.419 156.658 911.243 151.46 907.925 147.131C907.057 145.836 905.903 145.536 904.308 145.836C902.571 146.12 900.691 146.419 898.811 146.704C897.074 146.989 896.205 148.157 896.205 149.88V158.253C896.205 167.405 897.938 174.34 901.403 179.058C903.14 181.365 902.699 184.555 899.238 184.555H865.43C861.969 184.555 861.528 181.379 863.265 179.058L863.279 179.073ZM899.537 135.582C916.726 130.954 919.617 122.14 919.617 111.317C919.617 102.36 917.452 92.1066 904.009 92.1066C896.062 92.1066 896.205 94.7126 896.205 102.217V133.133C896.205 135.155 897.501 136.166 899.523 135.582H899.537Z" fill="#5A63AB"/>
<path d="M506.569 90.5117C515.028 90.5117 520.312 100.295 522.291 116.885C523.345 116.828 524.427 116.814 525.567 116.856C532.474 117.127 542.528 119.306 554.59 128.761C554.633 125.956 554.462 122.04 553.465 117.526C551.372 108.013 546.786 101.192 543.596 97.1762C541.203 94.1714 537.316 89.999 531.562 86.4959C517.179 77.7381 497.426 76.9833 481.975 85.9548C473.331 90.9674 468.147 97.8027 465.284 102.459C463.248 105.578 460.571 110.519 459.118 117.056C458.121 121.513 457.979 125.458 458.107 128.476C465.341 128.818 476.378 128.704 489.337 125.828C489.494 125.799 489.637 125.757 489.793 125.714C490.733 103.812 496.43 90.5117 506.555 90.5117H506.569Z" fill="#5A63AB"/>
<path d="M506.427 175.612C496.415 175.612 490.733 161.927 489.807 139.271C488.668 139.527 487.5 139.783 486.276 140.025C475.125 142.247 465.484 142.218 458.619 141.734C458.89 144.297 459.36 147.245 460.2 150.435C461.354 154.807 462.878 158.481 464.33 161.4C466.21 165.316 470.924 173.732 480.665 179.713C490.932 186.022 500.873 186.008 506.356 185.993C511.981 185.993 521.608 185.837 531.676 179.799C541.488 173.903 546.359 165.644 548.324 161.77C549.677 159.079 551.115 155.718 552.255 151.731C553.28 148.171 553.85 144.91 554.163 142.133C543.511 133.304 534.439 130.997 528.358 130.427C526.521 130.256 524.812 130.228 523.146 130.299C523.16 131.325 523.174 132.35 523.174 133.404C523.174 159.407 517.535 175.598 506.413 175.598L506.427 175.612Z" fill="#5A63AB"/>
</g>
<defs>
<linearGradient id="paint0_linear_81_117" x1="146.512" y1="43.5328" x2="146.512" y2="242.3" gradientUnits="userSpaceOnUse">
<stop stop-color="#9999CC"/>
<stop offset="0.48" stop-color="#35398E"/>
<stop offset="1" stop-color="#9999CC"/>
</linearGradient>
<linearGradient id="paint1_linear_81_117" x1="146.598" y1="43.5327" x2="146.598" y2="242.3" gradientUnits="userSpaceOnUse">
<stop stop-color="#9999CC"/>
<stop offset="0.48" stop-color="#35398E"/>
<stop offset="1" stop-color="#9999CC"/>
</linearGradient>
<clipPath id="clip0_81_117">
<rect width="957" height="314" fill="white"/>
</clipPath>
</defs>
</svg>
