<svg width="341" height="356" viewBox="0 0 341 356" fill="none" xmlns="http://www.w3.org/2000/svg">
<path d="M340.309 68.2321C339.357 61.1374 332.674 57.705 326.452 55.57C278.363 37.7675 230.57 19.9979 182.514 2.29393C171.366 -2.53443 160.317 1.07863 149.349 5.59494C103.937 22.4613 58.6882 39.1306 13.1935 56.0463C6.67547 58.2141 0.764927 62.5991 0.387309 69.7759C-0.41718 96.0691 0.321639 122.494 0.0753666 148.787C0.0753666 172.206 0.108203 195.559 0.0753666 218.962C-0.252997 227.469 1.83211 235.779 8.99043 241.051C58.0315 277.641 107.614 313.509 156.82 349.886C164.782 356.422 172.844 358.722 181.496 351.742C230.997 315.381 280.481 279.087 329.982 242.71C338.257 237.175 341.491 227.847 340.867 218.141C340.424 168.33 341.557 118.388 340.391 68.6263L340.325 68.2321H340.309ZM325.812 228.159C324.268 231.493 322.216 233.743 320.804 235.057C248.006 287.085 196.765 323.872 188.671 330.293C187.21 331.443 182.153 335.582 179.394 334.005C177.638 333.003 177.523 330.129 177.49 328.733C177.293 321.556 177.08 307.236 177.047 288.53C177.145 284.605 174.075 281.435 170.594 281.32C166.802 281.205 163.338 284.703 163.715 288.973C163.748 294.968 163.814 309.798 163.551 325.35C163.502 327.83 163.387 332.33 160.875 333.578C157.936 335.04 153.355 331.23 151.878 330.08C107.828 295.707 58.6061 265.094 16.5592 228.126C14.2114 224.25 13.8338 219.274 13.8502 214.676C13.8666 172.452 13.6696 130.147 13.9159 87.9561C14.1457 84.1296 14.9831 80.9764 17.101 79.9746C19.613 78.7921 22.9459 81.0092 24.013 81.699C30.6296 85.9689 47.803 94.4268 72.8571 106.12C73.6123 106.383 75.3034 106.859 77.175 106.268C80.3602 105.25 82.8229 101.538 81.9363 98.3519C81.4602 96.6439 80.1631 95.5928 79.4408 95.1165C59.9031 84.8193 44.5193 76.6079 35.2266 71.6481C33.4699 70.712 29.2833 68.5934 29.9072 66.3107C30.449 64.2906 34.5535 62.2049 37.1476 61.3509C77.6019 46.3075 118.122 31.2148 158.593 16.2042C166.408 12.7882 174.781 12.821 182.58 16.2863C222.574 31.1327 262.815 46.094 302.695 60.9403C305.256 61.8929 311.873 64.7012 311.626 67.5752C311.495 69.0861 309.525 70.1865 307.62 70.9419C290.759 79.6625 273.897 88.3995 257.052 97.1201C256.642 97.3336 254.031 98.6967 253.342 101.669C252.652 104.625 254.114 108.009 257.036 109.339C260.402 110.883 263.62 108.731 263.784 108.616C280.892 99.7642 298.016 90.9123 315.123 82.0603C317.241 80.7464 321.412 78.5293 324.153 80.1716C326.255 81.4198 326.633 84.4416 326.764 85.7062C327.962 96.7424 327.897 205.824 327.88 217.369C328.012 219.471 327.995 223.626 325.877 228.192L325.812 228.159Z" fill="#5E4797"/>
<path d="M88.3722 111.72C93.7902 102.901 103.608 89.9597 119.944 80.4673C149.185 63.4859 186.553 64.9147 213.774 81.4855C224.659 88.1039 232.015 96.0034 236.546 101.702C242.588 109.29 251.257 122.231 255.214 140.23C257.102 148.787 257.43 156.194 257.331 161.515C234.527 143.597 215.498 139.475 202.429 138.966C178.787 138.063 166.408 148.705 133.883 155.947C109.371 161.416 88.4872 161.63 74.7944 160.973C74.5481 155.257 74.8272 147.818 76.6989 139.36C79.4572 126.977 84.514 117.632 88.3722 111.72Z" fill="url(#paint0_linear_81_102)"/>
<path d="M75.7302 186.067C76.2392 190.928 77.1422 196.496 78.7348 202.539C80.9184 210.816 83.7916 217.78 86.5498 223.281C90.1125 230.705 99.0276 246.618 117.465 257.95C136.904 269.906 155.703 269.873 166.063 269.84C176.718 269.824 194.926 269.545 213.988 258.098C232.557 246.947 241.767 231.296 245.494 223.971C248.055 218.88 250.781 212.508 252.948 204.97C254.885 198.22 255.969 192.061 256.543 186.806C236.382 170.087 219.209 165.735 207.716 164.651C180.889 162.122 166.161 175.211 128.055 182.782C106.958 186.97 88.717 186.921 75.7138 186.034L75.7302 186.067Z" fill="url(#paint1_linear_81_102)"/>
<defs>
<linearGradient id="paint0_linear_81_102" x1="166.047" y1="49.3622" x2="166.047" y2="274.718" gradientUnits="userSpaceOnUse">
<stop stop-color="#9999CC"/>
<stop offset="0.48" stop-color="#35398E"/>
<stop offset="1" stop-color="#9999CC"/>
</linearGradient>
<linearGradient id="paint1_linear_81_102" x1="166.145" y1="-0.00525748" x2="166.145" y2="274.718" gradientUnits="userSpaceOnUse">
<stop stop-color="#9999CC"/>
<stop offset="0.48" stop-color="#35398E"/>
<stop offset="1" stop-color="#9999CC"/>
</linearGradient>
</defs>
</svg>
